<?xml version="1.0" encoding="UTF-8" standalone="no"?>
<svg
   xmlns:dc="http://purl.org/dc/elements/1.1/"
   xmlns:cc="http://creativecommons.org/ns#"
   xmlns:rdf="http://www.w3.org/1999/02/22-rdf-syntax-ns#"
   xmlns:svg="http://www.w3.org/2000/svg"
   xmlns="http://www.w3.org/2000/svg"
   xmlns:sodipodi="http://sodipodi.sourceforge.net/DTD/sodipodi-0.dtd"
   xmlns:inkscape="http://www.inkscape.org/namespaces/inkscape"
   sodipodi:docname="sitelogo.svg"
   inkscape:version="1.0 (4035a4fb49, 2020-05-01)"
   id="svg855"
   version="1.1"
   height="128"
   width="700">
  <defs
     id="defs849" />
  <sodipodi:namedview
     showgrid="false"
     inkscape:document-rotation="0"
     inkscape:current-layer="layer1"
     inkscape:document-units="mm"
     inkscape:cy="43.889197"
     inkscape:cx="392.41522"
     inkscape:zoom="1.4"
     inkscape:pageshadow="2"
     inkscape:pageopacity="0.0"
     borderopacity="1.0"
     bordercolor="#666666"
     pagecolor="#ffffff"
     id="base" />
  <metadata
     id="metadata852">
    <rdf:RDF>
      <cc:Work
         rdf:about="">
        <dc:format>image/svg+xml</dc:format>
        <dc:type
           rdf:resource="http://purl.org/dc/dcmitype/StillImage" />
        <dc:title></dc:title>
      </cc:Work>
    </rdf:RDF>
  </metadata>
  <g
     id="layer1"
     inkscape:groupmode="layer"
     inkscape:label="Layer 1">
    <path
       d="m 7.1072212,55.97444 c 2.5006739,0.0054 4.9711698,0.396202 7.3703718,1.080512 1.826537,0.512474 3.329305,1.60326 4.743406,2.825094 1.604871,1.605422 3.435955,2.953525 5.252701,4.304778 3.305372,2.447823 6.565222,4.951616 9.952452,7.286995 2.888103,1.935108 5.724341,3.928396 8.479775,6.047366 2.701129,2.129516 5.417147,4.240539 8.163162,6.311939 2.546946,1.994999 5.130526,3.951818 7.858085,5.693145 3.317728,1.921855 6.568297,3.955445 9.849942,5.936952 3.851734,2.170712 7.949728,3.870811 12.006123,5.616619 5.221811,2.2684 10.647113,4.00089 16.097298,5.62175 6.366103,1.96904 12.928903,2.95445 19.544073,3.56226 6.82102,0.61309 13.64595,0.6882 20.45416,-0.0412 8.0618,-1.04637 15.9393,-3.14313 23.76726,-5.28227 6.55635,-1.6901 12.75313,-4.36497 18.8787,-7.195795 7.05696,-3.298551 14.17201,-6.473733 21.25914,-9.708041 6.82471,-3.106951 13.88101,-5.653359 21.03299,-7.888276 6.94112,-1.67979 13.41052,-4.549043 19.74401,-7.782351 7.3335,-3.769178 14.47647,-7.890981 21.75861,-11.7559 7.27078,-3.980735 15.14218,-6.462505 23.17741,-8.3332 6.99975,-1.233529 14.14117,-2.07557 21.26334,-1.984549 1.33933,0.01712 2.67627,0.118348 4.0144,0.177522 7.51513,0.808384 14.9328,2.361945 22.32819,3.895321 6.70691,1.390496 13.20283,3.535458 19.59581,5.960888 7.51283,2.933735 14.83769,6.30541 22.20986,9.565918 6.79003,3.098835 13.88592,5.446833 21.03217,7.565367 9.26369,2.810083 18.61055,5.291553 27.99942,7.641417 9.5778,2.37047 19.15912,4.723363 28.76057,6.996585 10.34808,2.646631 20.74371,5.056926 31.22457,7.114396 11.58472,2.374818 23.37371,3.387708 35.14676,4.269408 9.80907,0.80016 19.64402,0.7318 29.47349,0.56344 6.2684,-0.20704 12.59515,-0.12034 18.83435,-0.87364 4.42197,-0.53389 7.88994,-1.29416 12.2715,-2.14744 11.60481,-2.245383 22.76547,-6.139266 33.85983,-10.126581 10.15317,-3.746269 20.17224,-7.879979 29.77661,-12.876626 9.74104,-5.2776 19.21765,-10.98152 28.45939,-17.077638 2.27573,-1.71116 4.76443,-3.13886 7.04783,-4.836623 0.55953,-0.416031 2.50771,-2.061599 2.99365,-2.468528 2.2438,-1.812361 4.4964,-3.613072 6.81764,-5.325202 0,0 -9.66145,3.842927 -9.66145,3.842927 v 0 c -2.29273,1.753386 -4.55701,3.54407 -6.79569,5.366057 -3.18249,2.573036 -6.59156,4.830224 -9.95644,7.156178 -2.70799,1.799171 -5.40919,3.608529 -8.1805,5.309927 -1.16686,0.716372 -4.75526,2.70924 -3.52347,2.111364 0.06,-0.02913 11.2351,-6.442827 0.5743,-0.325436 -9.5847,5.120259 -19.62745,9.323625 -29.81774,13.083825 -11.08847,4.030348 -22.25262,7.964561 -33.84459,10.304046 -4.85656,0.954841 -7.14008,1.503101 -11.99761,2.082046 -6.23492,0.74311 -12.54563,0.744932 -18.8111,0.932756 -9.83505,0.190463 -19.67384,0.285238 -29.4937,-0.439391 -11.77941,-0.799031 -23.58292,-1.717642 -35.16836,-4.104636 -10.41927,-2.085267 -20.7433,-4.576465 -31.03995,-7.197815 -9.61349,-2.286223 -19.21953,-4.601461 -28.82042,-6.93992 -9.33193,-2.344576 -18.60515,-4.856297 -27.78812,-7.735439 -7.11206,-2.102645 -14.17097,-4.440285 -20.94981,-7.46884 -7.41261,-3.209964 -14.74655,-6.60543 -22.25749,-9.586915 -1.64248,-0.647512 -5.41973,-2.159889 -7.14604,-2.752535 -4.07489,-1.398923 -8.27987,-2.402612 -12.46464,-3.403386 -7.46337,-1.509196 -14.9487,-3.00218 -22.50452,-3.958833 -1.35221,-0.07629 -2.70259,-0.199443 -4.05663,-0.228876 -7.16591,-0.155761 -14.34501,0.746579 -21.40923,1.831695 -8.05934,1.795796 -15.98576,4.159281 -23.29506,8.089602 -7.30696,3.847084 -14.44309,8.008172 -21.78484,11.790714 -6.26081,3.253838 -12.65031,6.194735 -19.54554,7.850813 -7.21337,2.227225 -14.33385,4.760688 -21.21906,7.871376 -7.04326,3.209528 -14.11809,6.351943 -21.14021,9.604067 -6.11923,2.861826 -12.28684,5.63316 -18.83792,7.37774 -7.78198,2.170377 -15.60369,4.345087 -23.63395,5.379157 -1.14336,0.13931 -2.28278,0.31606 -3.43008,0.41792 -5.62757,0.49965 -11.29024,0.1097 -16.9147,-0.20153 -6.55072,-0.56476 -13.0565,-1.52135 -19.36559,-3.43939 C 99.919547,99.333138 94.555122,97.588907 89.372269,95.357294 85.371287,93.624347 81.355492,91.883078 77.520191,89.806166 74.245374,87.840321 71.011022,85.806876 67.713614,83.877792 65.018731,82.13235 62.41591,80.237171 59.891508,78.252014 57.142253,76.195092 54.44049,74.074702 51.752817,71.938298 48.970972,69.800656 46.123276,67.785071 43.171943,65.88508 39.782879,63.598227 36.551406,61.106194 33.341339,58.576132 31.562814,57.230924 29.77639,55.877833 28.19258,54.304556 c -1.490341,-1.33906 -3.082421,-2.572231 -5.010648,-3.208276 -2.451896,-0.71201 -4.945945,-1.151491 -7.493528,-1.356434 0,0 -8.5811828,6.234594 -8.5811828,6.234594 z"
       id="path1418"
       style="fill:#ff7f2a;fill-rule:evenodd;stroke-width:0.933333;stroke-linecap:round;paint-order:markers fill stroke" />
    <path
       d="m 36.738107,108.12726 c 1.769533,-2.55413 3.615463,-5.05343 5.42438,-7.57971 2.287721,-3.06965 4.845576,-5.929556 7.676446,-8.505861 2.721234,-2.581453 5.616563,-4.947655 8.669666,-7.125557 0.500504,-0.368245 0.991307,-0.750053 1.501513,-1.104735 0.52098,-0.362171 1.050315,-0.712952 1.590953,-1.045064 0.55703,-0.342183 2.264522,-1.307588 1.70058,-0.97692 -13.777255,8.078314 -7.101462,4.117834 -3.864445,2.474324 3.49046,-1.829048 7.289029,-2.888847 11.088859,-3.849501 4.951848,-1.046937 9.941626,-1.911008 14.969546,-2.492287 4.570683,-0.348242 9.141346,-0.718772 13.717158,-0.999496 6.365967,-0.481635 12.738467,-0.0093 19.091637,0.418503 7.50214,0.52934 14.91727,1.775994 22.27045,3.311896 6.27016,1.422073 12.44337,3.227827 18.68853,4.757587 7.37977,1.751307 14.79986,3.328703 22.19694,5.005769 7.73884,1.755464 15.53586,3.231816 23.35048,4.604092 8.24512,1.44535 16.40209,3.329861 24.54252,5.26803 8.45294,1.93776 17.03974,3.16517 25.662,4.02362 9.84756,0.94471 19.74082,1.19439 29.62536,1.41056 10.48074,0.38806 20.922,-0.71766 31.3266,-1.82214 9.6513,-0.99036 19.24469,-2.38642 28.72678,-4.436981 8.88987,-2.139541 17.75329,-4.393018 26.59773,-6.713467 10.20005,-2.643747 20.53077,-4.740691 30.84587,-6.876916 10.25404,-2.34355 20.62038,-4.130244 30.93392,-6.177488 9.84915,-1.880905 19.61877,-4.147397 29.45753,-6.076368 10.871,-1.833214 21.72909,-3.741802 32.59616,-5.599481 10.8313,-1.929174 21.62301,-4.063836 32.46739,-5.919593 10.61476,-1.68278 21.34383,-2.34909 32.07967,-2.402144 7.26272,0.02366 14.47515,0.909434 21.65113,1.94115 6.52317,0.914369 12.87058,2.690031 19.16518,4.581456 5.36234,1.569358 10.57705,3.577288 15.82149,5.491764 4.71889,1.627056 9.27693,3.657116 13.96821,5.357815 5.30205,1.792201 10.57983,3.655496 15.8753,5.467437 5.58419,1.924209 11.26688,3.540455 16.95849,5.11123 5.08086,1.403725 10.16664,2.78541 15.28313,4.054456 2.30578,0.494923 4.57155,1.151825 6.87341,1.662233 0,0 8.66039,-6.032814 8.66039,-6.032814 v 0 c -2.35384,-0.426576 -4.65457,-1.081063 -7.00496,-1.525513 -5.1559,-1.184755 -10.26286,-2.555464 -15.36355,-3.956979 -5.6684,-1.549889 -11.33508,-3.128545 -16.87654,-5.093999 -5.30604,-1.78246 -10.59043,-3.62663 -15.88812,-5.432566 -4.68524,-1.700487 -9.20125,-3.81117 -13.93561,-5.380445 -5.2942,-1.902087 -10.54681,-3.932751 -15.96497,-5.465426 -6.32297,-1.874966 -12.67083,-3.803738 -19.2164,-4.733268 -7.27526,-0.993382 -14.57138,-1.925088 -21.93087,-1.921396 -10.80332,0.07807 -21.58319,0.792829 -32.28214,2.350865 -10.85449,1.847724 -21.65766,3.963567 -32.48979,5.935693 -10.85443,1.863441 -21.70491,3.745688 -32.56875,5.552376 -9.82346,1.874617 -19.56891,4.139206 -29.39279,6.016912 -10.33307,2.126848 -20.74208,3.882078 -31.02784,6.243486 -10.28743,2.1184 -20.59175,4.190468 -30.7784,6.759311 -8.80411,2.312778 -17.62868,4.555188 -26.48116,6.674421 -9.54383,2.147553 -19.19273,3.720578 -28.92749,4.726771 -10.31721,1.084082 -20.66556,2.099088 -31.05607,1.773591 -9.87667,-0.121751 -19.76272,-0.362345 -29.59953,-1.322509 -8.55887,-0.931401 -17.11104,-2.024264 -25.50929,-3.969578 -8.15137,-1.969754 -16.33649,-3.812202 -24.58868,-5.312232 -7.78834,-1.356665 -15.54316,-2.885127 -23.25919,-4.609329 -7.38883,-1.638828 -14.79122,-3.220145 -22.14369,-5.018064 -6.25098,-1.534548 -12.4239,-3.365462 -18.69882,-4.794509 -7.41473,-1.533711 -14.89199,-2.758504 -22.44736,-3.349671 -6.29197,-0.507917 -12.60702,-1.076807 -18.9234,-0.708922 -4.60568,0.26548 -9.199239,0.69736 -13.802484,0.998471 -5.038038,0.52302 -10.016979,1.425782 -14.997267,2.339326 -3.815835,0.930735 -7.665018,1.872611 -11.198455,3.640319 -6.484684,3.242565 -12.908465,6.709345 -18.759458,11.003934 -3.016047,2.231581 -5.878848,4.640124 -8.592788,7.232738 -2.789953,2.675466 -5.372342,5.566373 -7.632015,8.707443 -1.845917,2.54589 -3.65618,5.12427 -5.617739,7.58211 0,0 9.764663,-4.14876 9.764663,-4.14876 z"
       id="path1420"
       style="fill:#ff0000;fill-rule:evenodd;stroke-width:0.933333;stroke-linecap:round;paint-order:markers fill stroke" />
  </g>
</svg>
